<svg width="70" height="68" viewBox="0 0 70 68" fill="none" xmlns="http://www.w3.org/2000/svg">
<path fill-rule="evenodd" clip-rule="evenodd" d="M33.0341 6.3484C33.0139 6.34988 32.9946 6.34988 32.9744 6.34988C32.4691 6.34988 32.0439 6.0479 32.0131 5.65585L31.6274 0.78288C31.5956 0.375322 32.0005 0.0253543 32.5318 0.000989462C33.0669 -0.0196837 33.5211 0.285985 33.5529 0.693542L33.9386 5.56651C33.9704 5.97407 33.5654 6.32404 33.0341 6.3484ZM37.8522 11.547C37.9612 11.578 38.073 11.592 38.1829 11.592C38.5763 11.592 38.9466 11.406 39.0883 11.1062L43.2343 2.39392C43.4166 2.01073 43.1591 1.58692 42.6587 1.44738C42.1564 1.30784 41.6039 1.50571 41.4226 1.88816L37.2766 10.6004C37.0944 10.9836 37.3518 11.4074 37.8522 11.547ZM28.0589 10.263C27.7321 10.263 27.4129 10.1353 27.2317 9.90494L23.182 4.7359C22.9082 4.38593 23.0557 3.9326 23.5128 3.72291C23.9698 3.51396 24.5618 3.62619 24.8356 3.97616L28.8852 9.14446C29.1591 9.49443 29.0115 9.94776 28.5545 10.1574C28.3993 10.2291 28.2277 10.263 28.0589 10.263ZM57.2276 45.0228L69.8585 60.8969C70.1362 61.2454 69.9926 61.6994 69.5375 61.9113C69.0824 62.1247 68.4884 62.014 68.2127 61.6655L56.088 46.4271L40.6561 53.7705L48.36 63.5571C48.6348 63.907 48.4882 64.3604 48.0321 64.5708C47.8759 64.6432 47.7043 64.6771 47.5346 64.6771C47.2087 64.6771 46.8896 64.5509 46.7083 64.3205L38.5127 53.9101C38.2408 53.5638 38.3816 53.1149 38.8289 52.9015L41.0745 51.8332L34.9866 43.2552C34.5846 44.0091 34.2172 44.6263 33.9077 45.0376L28.2074 52.5966L29.7723 53.4435C29.9854 53.5586 30.1281 53.7351 30.1686 53.9337C30.2081 54.1316 30.1416 54.3331 29.9834 54.4934L16.8705 67.7087C16.6815 67.8992 16.3932 68.0003 16.102 68.0003C15.914 68.0003 15.726 67.9583 15.5563 67.8734L0.514881 60.0471C0.0800314 59.8204 -0.0375995 59.3693 0.249729 59.0319L12.3021 44.9298C12.4458 44.7622 12.6714 44.6463 12.9288 44.6086C13.1853 44.5724 13.4514 44.616 13.6655 44.7312L15.1426 45.5308C16.0866 41.9743 16.4144 38.7743 16.102 36.0218C15.8465 33.0257 14.4098 30.3389 11.577 27.551C11.5009 27.4809 11.335 27.3391 11.1326 27.1663C9.59756 25.8536 8.82814 25.1212 8.69411 24.5896C8.5302 24.041 8.6999 23.2613 9.46643 22.8131C10.0363 22.4816 11.0776 22.2402 12.8102 22.983C13.5768 23.3241 14.2883 23.7006 14.9459 24.0875L12.0987 20.0341C11.2714 19.1377 11.5337 17.9623 12.7244 17.2779C13.922 16.589 15.6382 16.7337 16.6323 17.6042C16.6603 17.6286 16.6873 17.6544 16.7104 17.6818L18.768 20.057L16.8541 15.6595C16.4809 15.1353 16.4028 14.5047 16.6429 13.9163C16.8926 13.3035 17.4634 12.8036 18.2087 12.5445C18.9811 12.2469 19.9347 12.2041 20.7957 12.4367C21.594 12.653 22.241 13.0953 22.5698 13.649L25.4392 19.6671L25.1654 16.8142C24.907 15.6462 26.0119 14.4951 27.6906 14.2618C29.4059 14.1415 30.8994 15.0548 31.0412 16.2501L32.5443 31.0832L34.1719 29.0062C34.788 28.2635 36.6238 26.0529 39.4479 27.3502L39.93 27.5717C40.8402 27.9903 41.251 28.8017 40.9261 29.546C40.2598 31.3106 37.8811 37.3176 35.8882 41.4626C35.8951 41.4705 35.9037 41.4773 35.9123 41.484L35.9124 41.484C35.923 41.4924 35.9337 41.5007 35.9412 41.5113L42.7137 51.0527L52.1049 46.5836L48.0823 38.8135C47.041 36.8635 47.7708 34.6257 49.9007 33.2516L57.8119 28.2273C58.1533 28.0021 58.1417 27.6743 58.0125 27.4447C57.9479 27.3325 57.6924 26.9633 57.082 27.0194C55.7275 27.1414 53.3619 28.0517 52.5684 28.3569L52.5684 28.357L52.5581 28.3609L48.9279 29.7512C48.5277 29.9055 48.0408 29.8265 47.7554 29.5629C47.4691 29.2994 47.4575 28.9199 47.7275 28.6459L56.9847 19.2692C57.2893 18.9945 57.2893 18.5892 57.0213 18.3492C56.7928 18.1307 56.5276 18.0886 56.3415 18.0886C56.032 18.0886 55.7235 18.206 55.5181 18.4031L48.2867 25.3427C47.956 25.6616 47.3495 25.7148 46.932 25.4593C46.6321 25.2755 46.5213 24.9838 46.6022 24.7151C46.5704 24.5807 46.5695 24.4419 46.6418 24.3068L52.2341 13.8225C52.3392 13.6431 52.343 13.4984 52.2592 13.3655C52.1434 13.1824 51.8764 13.0355 51.5437 12.972C51.133 12.9003 50.513 13.1093 50.325 13.398L44.3673 23.7752C44.1542 24.148 43.5872 24.3186 43.0974 24.1539C42.706 24.0225 42.4986 23.7161 42.5382 23.4075C42.5382 23.393 42.5357 23.3789 42.5332 23.3649C42.5296 23.3452 42.5261 23.3255 42.5295 23.3049L44.0722 14.5926C44.0809 14.5468 44.0934 14.5018 44.1127 14.4582C44.1763 14.3113 44.105 14.1821 44.0568 14.1186C43.9584 13.9879 43.7858 13.8956 43.5853 13.8646C43.1485 13.7908 42.706 13.9717 42.5719 14.1828L39.6013 23.5773C39.5762 23.6548 39.5338 23.725 39.4817 23.7892C39.4778 23.7951 39.4769 23.8018 39.4721 23.8069C39.4084 23.8815 39.3265 23.9443 39.2339 23.9959C39.2163 24.0058 39.1961 24.0133 39.1759 24.0207C39.1629 24.0255 39.1499 24.0303 39.1375 24.0358C39.0661 24.0668 38.9938 24.0934 38.9148 24.1096C38.9067 24.1114 38.8994 24.1144 38.8922 24.1174C38.8838 24.1208 38.8754 24.1243 38.8656 24.1259C38.8506 24.1283 38.8359 24.1275 38.8212 24.1266C38.8084 24.126 38.7956 24.1253 38.7827 24.1266C38.7678 24.1283 38.7532 24.1309 38.7386 24.1335C38.7144 24.1378 38.6903 24.1421 38.665 24.1421C38.6301 24.1421 38.5947 24.1377 38.5596 24.1333L38.5416 24.1311L38.5223 24.1288L38.5123 24.1279L38.5079 24.1275L38.498 24.1268C38.4872 24.1261 38.4765 24.1254 38.4654 24.1237C38.4629 24.1233 38.4605 24.1231 38.4581 24.1229L38.4515 24.1226C38.4469 24.1224 38.4423 24.1222 38.4375 24.1215C38.4101 24.1166 38.3866 24.1065 38.3629 24.0964L38.3629 24.0964C38.3474 24.0898 38.3318 24.0832 38.315 24.0779L38.284 24.0687C38.2261 24.0515 38.1691 24.0347 38.1183 24.0078C38.0811 23.988 38.0508 23.963 38.0203 23.9379L38.0201 23.9377L38.02 23.9376L37.9977 23.9193L37.9882 23.9118L37.969 23.8973L37.9599 23.8906L37.9598 23.8905L37.9597 23.8904L37.9596 23.8904C37.9243 23.8642 37.8892 23.8382 37.8619 23.8062C37.8305 23.7689 37.8112 23.7278 37.7916 23.6859L37.778 23.6571C37.7713 23.6433 37.7625 23.6305 37.7537 23.6178C37.7407 23.5991 37.7278 23.5804 37.722 23.5589L36.1784 18.0214C36.1649 17.9712 36.1572 17.9195 36.1572 17.8678C36.1572 17.7489 35.9952 17.5725 35.7725 17.5725C35.57 17.5725 35.3897 17.6744 35.2933 17.794L35.4842 25.7546C35.4938 26.1622 35.0696 26.4989 34.5373 26.5063H34.519C33.9945 26.5063 33.5645 26.1843 33.5548 25.7812L33.362 17.6596C33.3601 17.5762 33.3764 17.4927 33.4112 17.413C33.7486 16.637 34.7196 16.0958 35.7725 16.0958C36.9873 16.0958 38.02 16.8578 38.0827 17.7792L38.7238 20.0813L40.7159 13.7812C40.7245 13.7524 40.7361 13.7236 40.7496 13.6955C41.2037 12.7682 42.6558 12.1938 43.9835 12.4219C44.7066 12.5326 45.3488 12.8826 45.7248 13.3788C46.0681 13.8299 46.1558 14.363 45.9726 14.8517L45.343 18.4112L48.5808 12.7719C49.1872 11.8416 50.6692 11.3115 51.9863 11.5359C52.9061 11.7109 53.6293 12.1428 53.9957 12.7239C54.3312 13.2547 54.3341 13.8528 54.0043 14.4073L50.6374 20.72L54.0121 17.4809C54.5896 16.9279 55.4381 16.6112 56.3415 16.6112H56.3425C57.19 16.6112 57.9787 16.9006 58.5071 17.4064C59.3662 18.1735 59.3672 19.4065 58.4869 20.1935L51.7501 27.0194C53.3554 26.4022 55.3725 25.6867 56.8699 25.5516C58.1369 25.4519 59.2804 25.9629 59.7847 26.8607C60.288 27.7555 60.0016 28.7345 59.0557 29.3555L51.1388 34.3842C49.6558 35.3396 49.1458 36.899 49.8728 38.2619L53.771 45.7907L55.8951 44.7799C56.114 44.6765 56.3782 44.6426 56.6279 44.6891C56.8786 44.7341 57.0936 44.8545 57.2276 45.0228ZM26.6252 51.7409L32.2368 44.3C33.9386 42.0377 37.8541 32.3715 39.0883 29.1081C39.1491 28.9693 39.017 28.8733 38.9408 28.8386L38.4587 28.6171L38.4578 28.6167C37.9171 28.3687 37.2469 28.0614 35.8149 29.7837L32.6465 33.8283C32.4306 34.1037 32.0083 34.2403 31.5985 34.1664C31.1897 34.0926 30.8908 33.8253 30.858 33.5049L29.1224 16.3757C29.0945 16.1431 28.8775 15.9829 28.7512 15.9083C28.5198 15.7724 28.2277 15.7052 27.9538 15.7252C27.4987 15.7916 26.979 16.166 27.0822 16.64L27.8642 24.7549C27.8658 24.7723 27.8614 24.7882 27.857 24.8042C27.8538 24.8161 27.8505 24.828 27.8497 24.8406C27.8738 25.1573 27.6424 25.4623 27.2326 25.5767C26.7322 25.7162 26.1788 25.5191 25.9965 25.1359L20.7899 14.2087C20.705 14.0706 20.463 13.9133 20.1554 13.8299C19.7871 13.7302 19.3822 13.7472 19.0418 13.8771C18.6725 14.0056 18.5375 14.2315 18.4874 14.3556C18.3987 14.5719 18.4286 14.7993 18.5684 14.978C18.6041 15.0245 18.634 15.0732 18.6561 15.1242L22.8571 24.7749L22.9805 24.9174C23.2746 25.257 23.1531 25.7155 22.7096 25.9407C22.5486 26.0219 22.3692 26.0485 22.1899 26.05C22.1756 26.0514 22.1613 26.0539 22.147 26.0563L22.1469 26.0563C22.1246 26.0602 22.1023 26.064 22.08 26.064C21.676 26.064 21.2999 25.8683 21.165 25.559L21.1081 25.4276L15.1474 18.5456C14.8138 18.285 14.2604 18.2436 13.8844 18.4585C13.6009 18.6209 13.4013 18.9 13.6915 19.1968C13.7204 19.2271 13.7465 19.2581 13.7667 19.2898L19.9375 28.0759C19.9522 28.0966 19.9586 28.1183 19.9651 28.1401C19.9693 28.1542 19.9735 28.1684 19.98 28.1823C19.9845 28.1922 19.9892 28.202 19.9938 28.2117C20.0111 28.2478 20.0281 28.2833 20.0349 28.3211C20.0421 28.3609 20.0394 28.3992 20.0366 28.4381L20.0349 28.4621L20.0339 28.4792C20.0316 28.5198 20.0293 28.56 20.0166 28.6002C20.0038 28.6386 19.9825 28.6736 19.9608 28.7091L19.9608 28.7092L19.9472 28.7316L19.9332 28.7545C19.9126 28.7887 19.8925 28.822 19.8633 28.8534C19.8321 28.8871 19.7923 28.9146 19.7516 28.9429L19.7264 28.9605C19.7126 28.9701 19.7007 28.9808 19.6887 28.9915L19.6887 28.9915L19.6887 28.9916C19.6706 29.0078 19.6525 29.024 19.628 29.0365C19.6209 29.0404 19.6129 29.0423 19.6048 29.0441C19.5977 29.0458 19.5905 29.0474 19.5837 29.0505C19.5771 29.0539 19.5716 29.0581 19.5662 29.0622C19.5598 29.0671 19.5535 29.072 19.5451 29.0756C19.4632 29.1096 19.3764 29.131 19.2896 29.145C19.2814 29.1462 19.2735 29.1467 19.2655 29.1473C19.2575 29.1478 19.2496 29.1484 19.2414 29.1495L19.2101 29.1533L19.2101 29.1534C19.1701 29.1584 19.1297 29.1635 19.09 29.1635C19.0582 29.1635 19.0269 29.1591 18.9954 29.1548L18.969 29.1512L18.955 29.1495L18.9435 29.1483L18.9261 29.1469C18.9116 29.1458 18.8972 29.1448 18.8827 29.1421C18.7757 29.1244 18.6735 29.0941 18.58 29.0491C18.5695 29.0443 18.5602 29.0384 18.5508 29.0324L18.5446 29.0285L18.5346 29.0225C18.4565 28.9797 18.3871 28.9272 18.3273 28.866C18.3225 28.8604 18.316 28.8564 18.3095 28.8523C18.303 28.8482 18.2965 28.8442 18.2917 28.8386C18.2666 28.8106 15.751 25.9983 11.8567 24.264C11.0564 23.9206 10.6861 23.959 10.6399 23.9856C10.5897 24.0151 10.5473 24.1672 10.5772 24.2595C10.5859 24.2846 10.5916 24.309 10.5965 24.3341C10.7437 24.6164 12.1154 25.7899 12.5699 26.1788L12.5721 26.1807C12.7948 26.3711 12.9761 26.5269 13.0821 26.6244C16.183 29.6766 17.7479 32.6204 18.0284 35.9089C18.3736 38.9537 17.9831 42.5095 16.8676 46.4618L26.6252 51.7409ZM4.0496 37.5812C6.28267 37.5812 8.0992 36.1902 8.0992 34.4802C8.0992 32.7702 6.28267 31.3792 4.0496 31.3792C1.81654 31.3792 0 32.7702 0 34.4802C0 36.1909 1.81654 37.5812 4.0496 37.5812ZM4.0496 32.8559C5.21917 32.8559 6.17082 33.5846 6.17082 34.4802C6.17082 35.3758 5.21917 36.1045 4.0496 36.1045C2.88004 36.1045 1.92838 35.3758 1.92838 34.4802C1.92838 33.5846 2.88004 32.8559 4.0496 32.8559ZM60.9513 33.389C60.9986 33.1903 61.15 33.0146 61.3708 32.9031C61.5906 32.7924 61.8606 32.7555 62.1209 32.8005L66.5273 33.5846L67.315 30.144C67.4076 29.7424 67.9089 29.4736 68.4315 29.5445C68.9551 29.6154 69.3061 29.9978 69.2145 30.3995L68.2503 34.6079C68.204 34.8073 68.0526 34.9837 67.8318 35.096C67.611 35.2082 67.341 35.2451 67.0817 35.1993L62.6705 34.4152L61.982 37.3427C61.8982 37.7001 61.4922 37.9504 61.0343 37.9504C60.9774 37.9504 60.9205 37.9467 60.8626 37.9385C60.3381 37.8662 59.9891 37.4823 60.0836 37.0813L60.9513 33.389ZM3.37467 17.6463C4.65318 17.6463 5.68872 16.8533 5.68872 15.8743C5.68872 14.8953 4.65318 14.1023 3.37467 14.1023C2.09615 14.1023 1.06061 14.8953 1.06061 15.8743C1.06061 16.8533 2.09711 17.6463 3.37467 17.6463ZM63.3473 11.3705C63.3473 12.1861 62.484 12.8472 61.419 12.8472C60.3539 12.8472 59.4906 12.1861 59.4906 11.3705C59.4906 10.555 60.3539 9.89386 61.419 9.89386C62.484 9.89386 63.3473 10.555 63.3473 11.3705Z" fill="black"/>
</svg>
