<svg width="77" height="88" viewBox="0 0 77 88" fill="none" xmlns="http://www.w3.org/2000/svg">
<path fill-rule="evenodd" clip-rule="evenodd" d="M43.115 62.2H47H59.2C59.478 62.2 59.744 62.084 59.933 61.88C60.122 61.676 60.218 61.401 60.197 61.124L58.496 38.807C58.041 33.925 54.09 30.1 49.5 30.1H47C46.9977 30.1 46.9956 30.1001 46.9934 30.1004C46.9917 30.1006 46.9899 30.1009 46.9883 30.1012L46.9817 30.1027L46.9723 30.1055C46.9642 30.108 46.9561 30.1105 46.947 30.111L46.299 10.965C46.079 4.816 41.116 0 35 0C28.883 0 23.92 4.816 23.701 10.966L23.052 30.13C23.0306 30.1271 23.0102 30.1215 22.9898 30.1159C22.9607 30.108 22.9318 30.1 22.9 30.1H20.4C15.81 30.1 11.858 33.925 11.403 38.824L9.703 61.124C9.682 61.401 9.777 61.676 9.967 61.88C10.156 62.084 10.422 62.2 10.7 62.2H23H26.885C26.831 62.323 26.8 62.457 26.8 62.6C26.8 64.005 27.061 65.361 27.529 66.624C23.919 66.754 20.686 68.358 18.407 70.858C17.6 70.773 16.775 70.7 16 70.7C7.178 70.7 0 77.878 0 86.7C0 87.253 0.448 87.7 1 87.7C1.552 87.7 2 87.253 2 86.7C2 78.98 8.28 72.7 16 72.7C16.2841 72.7 16.5893 72.7195 16.8947 72.7389H16.8948H16.8948H16.8949L16.975 72.744C15.731 74.737 15 77.082 15 79.6C15 80.153 15.448 80.6 16 80.6C16.552 80.6 17 80.153 17 79.6C17 73.535 21.935 68.6 28 68.6C28.152 68.6 28.292 68.561 28.421 68.5C29.803 70.826 31.989 72.65 34.684 73.548C34.685 73.548 34.687 73.548 34.688 73.549C34.788 73.582 34.893 73.6 35 73.6C35.107 73.6 35.212 73.582 35.312 73.549C35.313 73.5485 35.3138 73.5485 35.3145 73.5485L35.3157 73.5484L35.317 73.548C40.033 71.978 43.201 67.577 43.201 62.6C43.2 62.457 43.169 62.323 43.115 62.2ZM25.703 11H44.298C44.298 11.0069 44.2988 11.0139 44.2996 11.021L44.301 11.034L45.759 54.1H37.521L37.9 45.2C38 43.6 36.6 42.2 34.8 42.1C33.2 42.1 31.8 43.5 31.9 45.2L32.279 54.1H24.242L25.7 11.036C25.7 11.028 25.7009 11.02 25.7018 11.012L25.703 11ZM49.5 32.1C53.067 32.1 56.145 35.127 56.503 38.976L58.121 60.2H47.966L47.014 32.1H49.5ZM13.396 38.993C13.755 35.128 16.832 32.1 20.4 32.1H22.9C22.916 32.1 22.9308 32.0957 22.9458 32.0915C22.9589 32.0877 22.972 32.0839 22.986 32.083L22.033 60.2H11.779L13.396 38.993ZM35 71.532C31.279 70.145 28.8 66.601 28.8 62.6C28.8 62.457 28.768 62.323 28.715 62.201H32.624L32.7 64C32.8 65.2 33.7 66.1 34.9 66.1C36.1 66.1 37.1 65.2 37.1 64L37.177 62.2H41.286C41.232 62.323 41.2 62.457 41.2 62.6C41.2 66.601 38.72 70.145 35 71.532ZM35 28.7C38.363 28.7 41.1 25.964 41.1 22.6C41.1 19.236 38.364 16.5 35 16.5C31.636 16.5 28.9 19.236 28.9 22.6C28.9 25.964 31.636 28.7 35 28.7ZM35 18.5C37.261 18.5 39.1 20.339 39.1 22.6C39.1 24.861 37.261 26.7 35 26.7C32.739 26.7 30.9 24.861 30.9 22.6C30.9 20.339 32.739 18.5 35 18.5ZM63.117 73.839C63.851 73.685 64.613 73.6 65.4 73.6C71.4 73.6 76.1 78.3 76.099 84.3C76.099 84.853 75.652 85.3 75.099 85.3C74.546 85.3 74.099 84.853 74.099 84.3C74.099 79.421 70.278 75.6 65.4 75.6C60.521 75.6 56.7 79.421 56.7 84.3C56.7 84.853 56.253 85.3 55.7 85.3C55.147 85.3 54.7 84.853 54.7 84.3C54.7 79.803 57.34 76.037 61.188 74.432C59.569 70.909 56.071 68.6 52.2 68.6C46.741 68.6 42.3 73.041 42.3 78.5C42.3 79.053 41.853 79.5 41.3 79.5C40.747 79.5 40.3 79.053 40.3 78.5C40.3 71.939 45.638 66.6 52.2 66.6C56.945 66.6 61.226 69.474 63.117 73.839ZM6.58598 22.2C6.78198 22.4 7.04098 22.5 7.29998 22.5C7.55198 22.5 7.80498 22.405 7.99998 22.214L9.84998 20.4L11.7 22.214C11.895 22.405 12.148 22.5 12.4 22.5C12.659 22.5 12.918 22.4 13.114 22.2C13.501 21.805 13.494 21.172 13.1 20.786L11.278 19L13.1 17.214C13.494 16.828 13.5 16.194 13.114 15.8C12.728 15.406 12.094 15.399 11.7 15.786L9.84998 17.6L7.99998 15.786C7.60498 15.4 6.97298 15.406 6.58598 15.8C6.19898 16.195 6.20598 16.828 6.59998 17.214L8.42198 19L6.59998 20.786C6.20598 21.172 6.19898 21.806 6.58598 22.2ZM66.407 26.507C65.638 27.277 64.623 27.7 63.55 27.7C62.477 27.7 61.462 27.276 60.693 26.507C59.924 25.738 59.5 24.723 59.5 23.65C59.5 22.577 59.923 21.562 60.693 20.793C61.084 20.402 61.716 20.402 62.107 20.793C62.498 21.184 62.498 21.816 62.107 22.207C61.716 22.599 61.5 23.111 61.5 23.65C61.5 24.189 61.715 24.701 62.107 25.093C62.89 25.876 64.21 25.876 64.993 25.093C65.384 24.702 66.016 24.702 66.407 25.093C66.798 25.484 66.798 26.116 66.407 26.507Z" fill="black"/>
</svg>
